<?xml version="1.0" encoding="UTF-8"?>
<svg id="Livello_1" data-name="Livello 1" xmlns="http://www.w3.org/2000/svg" viewBox="0 0 70.8 43.7">
  <defs>
    <style>
      .cls-1 {
        fill: #ca9e67;
      }

      .cls-2 {
        fill: #1d1d1b;
      }
    </style>
  </defs>
  <path class="cls-2" d="m5.4,2.7c0,1.5-1.2,2.6-2.7,2.6S0,4.2,0,2.7,1.2,0,2.7,0s2.7,1.2,2.7,2.7Zm-.7,41H.7V12h3.9v31.8Z"/>
  <path class="cls-2" d="m31.2,22.1c0,6.1-4.7,10.8-10.8,10.8s-10.8-4.7-10.8-10.8,4.7-10.8,10.8-10.8,10.8,4.7,10.8,10.8Zm-17.7,0c0,3.8,3.1,7,6.9,7s6.9-3.2,6.9-7-3.1-7-6.9-7-6.9,3.2-6.9,7Z"/>
  <path class="cls-2" d="m43.4,16.6c-.5-1-1.5-1.8-2.6-1.8s-2.1.9-2.1,2c0,1.8,2.3,2.5,4.7,3.6,2.4,1.1,4.7,2.5,4.7,5.7s-3.2,6.7-7,6.7-5.9-1.7-7-4.5l3.3-1.5c.8,1.5,1.8,2.6,3.7,2.6s3.1-1.1,3.1-2.8-.5-1.6-1.4-2.2l-3.8-2c-2.2-1.2-3.9-2.3-3.9-5.1s2.7-5.9,6-5.9,4.4,1.3,5.5,3.5l-3.2,1.7Z"/>
  <path class="cls-2" d="m55.4,22.7c0,3.5,2.4,6.7,6.1,6.7s4.6-1.5,6-3.9l3.3,1.9c-1.9,3.5-5.4,5.5-9.4,5.5-6.2,0-9.9-4.7-9.9-10.6s3.3-10.9,9.8-10.9,9.5,4.7,9.5,10.8v.6h-15.4Zm11.5-2.9c-.5-3-2.5-5.1-5.6-5.1s-5.3,2.2-5.7,5.1h11.3Z"/>
  <rect class="cls-1" x="59.5" y="0" width="2.9" height="9.1" transform="translate(11.9 41) rotate(-40.9)"/>
</svg>